<svg xmlns="http://www.w3.org/2000/svg" xmlns:xlink="http://www.w3.org/1999/xlink" version="1.1" x="0px" y="0px" viewBox="0 0 100 125" style="enable-background:new 0 0 100 100;" xml:space="preserve"><g><path d="M91.8,37.1c-4.2,0-6,6-7.9,12.4c-1.5,5.2-3.3,11-6,11c-2.7,0-4.5-5.9-6-11C70,43.1,68.2,37.1,64,37.1c-4.2,0-6,6-7.9,12.4   c-1.5,5.2-3.3,11-6,11c-2.7,0-4.5-5.9-6-11c-1.9-6.4-3.7-12.4-7.9-12.4c-4.2,0-6,6-7.9,12.4c-1.5,5.2-3.3,11-6,11   c-2.7,0-4.5-5.9-6-11c-1.9-6.4-3.7-12.4-7.9-12.4c-0.6,0-1,0.4-1,1s0.4,1,1,1c2.7,0,4.5,5.9,6,11c1.9,6.4,3.7,12.4,7.9,12.4   c4.2,0,6-6,7.9-12.4c1.5-5.2,3.3-11,6-11c2.7,0,4.5,5.9,6,11c1.9,6.4,3.7,12.4,7.9,12.4c4.2,0,6-6,7.9-12.4c1.5-5.2,3.3-11,6-11   c2.7,0,4.5,5.9,6,11c1.9,6.4,3.7,12.4,7.9,12.4s6-6,7.9-12.4c1.5-5.2,3.3-11,6-11c0.6,0,1-0.4,1-1S92.4,37.1,91.8,37.1z"/></g></svg>